<?xml version="1.0" encoding="utf-8"?>
<!-- Generator: Adobe Illustrator 16.0.0, SVG Export Plug-In . SVG Version: 6.00 Build 0)  -->
<!DOCTYPE svg PUBLIC "-//W3C//DTD SVG 1.1//EN" "http://www.w3.org/Graphics/SVG/1.1/DTD/svg11.dtd">
<svg version="1.1" id="Layer_1" xmlns="http://www.w3.org/2000/svg" xmlns:xlink="http://www.w3.org/1999/xlink" x="0px" y="0px"
	 width="1400px" height="980px" viewBox="0 0 1400 980" enable-background="new 0 0 1400 980" xml:space="preserve">
<g>
	<g>
		<g>
			<rect fill="#FFFFFF" width="1400" height="980"/>
		</g>
	</g>
	<g>
		<g>
			<path fill="#FFD7C8" d="M681.1,396.7c-3.1,0-6.1,0.2-9.2,0.2c-41.1,1.2-79.8,10.6-113.7,26.4c-35.9-36.2-100.8-22.6-100.8-22.6
				l34.1,67.4c-40.3,37.9-64.8,88-64.8,142.9c0,1.2,0,2.5,0.1,3.7c-15.5,4.6-31.4,7.3-44.5,4.9c0,0-5.2-3.9-10,0.7
				c0,0-3.7,94.9,49.5,138.8c0,0,9.1,5.8,12.1-5l42.7-15.6c18.5,21.1,41.6,39.1,67.9,53.3l20.6,70.7h62.5h24.3l2.5-38.4
				c8.8,0.8,17.7,1.2,26.7,1.2c9.1,0,18.1-0.4,27-1.2l2.5,38.4H774h23.4l20.7-70.9c35.3-19,64.7-45.2,85.2-76.1
				c20.5-30.9,32.2-66.6,32.2-104.5C935.5,492.7,821.6,396.7,681.1,396.7z"/>
			<path d="M797.4,865.1h-86.8c-1.4,0-2.5-1.1-2.6-2.4l-2.4-35.8c-16.2,1.3-32.3,1.3-48.8,0l-2.4,35.8c-0.1,1.4-1.2,2.4-2.6,2.4
				h-86.8c-1.2,0-2.2-0.8-2.5-1.9l-20.3-69.7c-25.7-13.9-48.1-31.4-66.4-52l-39.8,14.6c-2.2,6.2-6.5,7.2-9,7.2c-3.4,0-6.3-1.8-6.6-2
				c-53.8-44.4-50.8-137.1-50.7-141c0-0.7,0.3-1.3,0.8-1.8c2-2,4.4-3,7-3c2.6,0,4.8,1.1,5.7,1.7c10.6,1.8,24.5,0.3,40.9-4.4
				c0-0.6,0-1.2,0-1.8c0-52.9,22.8-103.8,64.2-143.4l-33.2-65.6c-0.4-0.7-0.4-1.6,0-2.3c0.3-0.7,1-1.2,1.8-1.4
				c0.5-0.1,12.4-2.6,29-2.6c21.7,0,51.7,4.3,72.9,24.6c34.8-15.9,72.9-24.6,113-25.9l2.7-0.1c2.2-0.1,4.4-0.2,6.6-0.2
				c141.7,0,257,97.3,257,216.9c0,37.1-11.3,73.8-32.7,105.9c-20.5,30.8-49.9,57.3-85.2,76.5l-20.3,69.9
				C799.5,864.4,798.5,865.1,797.4,865.1z M713,860h82.4l20.1-69c0.2-0.7,0.6-1.2,1.3-1.6c34.9-18.8,64.1-44.9,84.3-75.3
				c20.8-31.3,31.8-67,31.8-103.1c0-116.7-113-211.7-251.8-211.7c-2.1,0-4.3,0.1-6.4,0.2l-2.7,0.1c-39.5,1.2-78.5,10.2-112.6,26.1
				c-1,0.5-2.2,0.3-2.9-0.5c-19.9-20.1-49.3-24.3-70.5-24.3c-11,0-20,1.1-24.6,1.9l32.5,64.3c0.5,1,0.3,2.3-0.5,3.1
				c-41.3,38.8-64,88.9-64,141c0,1.2,0,2.4,0.1,3.7c0,1.2-0.7,2.2-1.8,2.5c-18.3,5.5-33.7,7.2-45.7,5c-0.4-0.1-0.8-0.2-1.1-0.5l0,0
				c0,0-3.5-1.9-5.8-0.1c-0.2,10.7,0.1,95.5,48.6,135.5c0,0,0,0,0,0c0,0,1.8,1,3.6,1c0.9,0,3.1,0,4.4-4.7c0.2-0.8,0.8-1.4,1.6-1.7
				l42.7-15.6c1-0.4,2.1-0.1,2.8,0.7c18.4,20.9,41,38.7,67.1,52.7c0.6,0.3,1.1,0.9,1.3,1.6l20.1,68.9h82.4l2.4-36
				c0-0.7,0.4-1.3,0.9-1.8c0.5-0.5,1.2-0.7,1.9-0.6c18.1,1.6,35.6,1.6,53.2,0c0.7-0.1,1.4,0.2,1.9,0.6c0.5,0.5,0.9,1.1,0.9,1.8
				L713,860z"/>
		</g>
		<g>
			<path fill="#FFE5DB" d="M681.9,399c-3,0-6,0.2-9.1,0.2c103.9,21.2,279.9,90.3,228.4,314.6c20.3-30.5,31.8-65.7,31.8-103.2
				C933.1,493.7,820.7,399,681.9,399z"/>
		</g>
		<g>
			<path fill="#414042" d="M519.5,596.1c0,12.6-10.2,22.8-22.8,22.8c-12.6,0-22.8-10.2-22.8-22.8s10.2-22.8,22.8-22.8
				C509.3,573.3,519.5,583.5,519.5,596.1z"/>
			<path d="M496.7,621.5c-14,0-25.4-11.4-25.4-25.4c0-14,11.4-25.4,25.4-25.4s25.4,11.4,25.4,25.4
				C522.1,610.1,510.7,621.5,496.7,621.5z M496.7,575.9c-11.1,0-20.2,9.1-20.2,20.2c0,11.1,9.1,20.2,20.2,20.2s20.2-9.1,20.2-20.2
				C517,585,507.9,575.9,496.7,575.9z"/>
		</g>
		<g>
			<path d="M530.9,568.9c-0.7,0-1.5-0.3-2-0.9c-17.9-21.2-45.1-12.5-45.4-12.4c-1.3,0.5-2.8-0.3-3.3-1.6c-0.4-1.4,0.3-2.8,1.6-3.3
				c0.3-0.1,30.8-9.9,51,13.9c0.9,1.1,0.8,2.7-0.3,3.6C532.1,568.7,531.5,568.9,530.9,568.9z"/>
		</g>
		<g>
			<path d="M928.2,667.1c-1.4,0-2.5-1.1-2.6-2.4c-0.1-1.4,1-2.6,2.4-2.7c10.7-0.6,29.5-5.1,45.3-12.6c-4.4-2.4-8.2-5.9-11.4-10.3
				c-9.2-12.8-6.1-23.1-3.4-28.2c4.5-8.6,14-14.4,23.8-14.4c0.1,0,0.3,0,0.4,0c8.9,0.1,16.4,5.2,20.6,13.8
				c3.7,7.7,3.4,15.3-0.8,22.5c-3.5,5.9-9.3,11.1-16.4,15.4c13.1,1.9,28.1-3.8,40.3-10.4c1.3-0.7,2.8-0.2,3.5,1.1
				c0.7,1.3,0.2,2.8-1.1,3.5c-19.5,10.5-36.3,13.7-49.3,9.6c-18.2,9.4-40.9,14.5-51.2,15.1C928.3,667.1,928.3,667.1,928.2,667.1z
				 M982.4,601.7c-7.8,0-15.6,4.7-19.2,11.6c-3.6,6.9-2.5,15,3.1,22.8c3.7,5.1,8.1,8.4,12.9,10.4c8.4-4.6,15.3-10.1,19-16.2
				c3.4-5.7,3.6-11.5,0.6-17.7c-3.3-6.9-9-10.8-16-10.9C982.6,601.7,982.5,601.7,982.4,601.7z"/>
		</g>
		<g>
			<path fill="#FFE5DB" d="M834.8,553.6c-11.7,26.6-71,26.3-132.5-0.8c-61.5-27-101.9-70.5-90.2-97.1c11.7-26.6,71-26.3,132.5,0.8
				C806.1,483.5,846.5,527,834.8,553.6z"/>
		</g>
		<g>
			<path fill="#F5CFC0" d="M713,860l-2.5-38.7l-2.6,0.2c-8.9,0.8-17.9,1.2-26.7,1.2c-8.6,0-17.5-0.4-26.5-1.2l-2.6-0.2l-2.5,38.7
				h-82.4L546.7,790l-1-0.5c-19.4-10.4-37-23-52.3-37.4c35.8,10.8,121.9,33.3,216.4,33.3c53.2,0,101.8-7,144.7-20.9
				c-11.6,9.3-24.3,17.6-37.7,24.9l-1,0.5L795.4,860H713z"/>
		</g>
		<g>
			<polygon fill="#E6C1B4" points="625.6,860.1 649.9,860.1 652.4,821.6 628.7,815 			"/>
		</g>
		<g>
			<polygon fill="#E6C1B4" points="772,860.1 795.4,860.1 816,789.2 786.6,798.2 			"/>
		</g>
	</g>
	<g>
		<g>
			<path fill="#998178" d="M749.5,439.6c-0.7,0-1.3-0.1-2-0.2c-69.1-14.8-122.3-0.3-122.8-0.1c-4.9,1.4-10.1-1.5-11.5-6.4
				c-1.4-4.9,1.5-10.1,6.4-11.5c2.3-0.7,57.9-16,131.8-0.1c5,1.1,8.2,6,7.2,11.1C757.6,436.6,753.8,439.6,749.5,439.6z"/>
		</g>
	</g>
	<g>
		<path fill="#FFEAB7" d="M776.1,353.8c0-49.9-40.4-90.3-90.3-90.3c-49.9,0-90.3,40.4-90.3,90.3c0,33.4,18.2,62.4,45.1,78.1
			c20.7-3.3,52-5.6,90,0.3C757.7,416.5,776.1,387.3,776.1,353.8z"/>
		<path d="M730.6,434.7c-0.1,0-0.3,0-0.4,0c-30.4-4.7-61.4-4.8-89.2-0.3c-0.6,0.1-1.2,0-1.7-0.3c-28.6-16.6-46.4-47.4-46.4-80.3
			c0-51.2,41.7-92.9,92.9-92.9c51.2,0,92.9,41.7,92.9,92.9c0,33.2-17.9,64-46.8,80.6C731.5,434.6,731,434.7,730.6,434.7z
			 M683.9,425.9c15.2,0,30.7,1.2,46.1,3.5c26.8-15.7,43.4-44.6,43.4-75.6c0-48.4-39.3-87.7-87.7-87.7c-48.4,0-87.7,39.3-87.7,87.7
			c0,30.8,16.5,59.6,43,75.4C654.8,427,669.2,425.9,683.9,425.9z"/>
	</g>
	<g>
		<path fill="#FFEAB7" d="M962,183.9c31.5,38.2,26.1,94.8-12.2,126.3c-38.2,31.5-94.8,26.1-126.3-12.2
			c-31.5-38.2-26.1-94.8,12.2-126.3C873.9,140.2,930.4,145.7,962,183.9z"/>
		<path d="M892.8,333.3c-27.7,0-53.7-12.2-71.3-33.6c-15.7-19-23-43-20.7-67.6c2.4-24.5,14.1-46.7,33.2-62.4
			c16.5-13.6,37.3-21.1,58.7-21.1c27.7,0,53.7,12.2,71.3,33.6c32.4,39.3,26.8,97.6-12.5,130C935,325.8,914.1,333.3,892.8,333.3z
			 M892.7,153.9c-20.1,0-39.8,7.1-55.4,19.9c-18,14.8-29.1,35.7-31.3,58.9c-2.2,23.2,4.7,45.8,19.5,63.8
			c16.6,20.2,41.1,31.7,67.3,31.7c20.1,0,39.8-7.1,55.4-19.9c37.1-30.6,42.4-85.6,11.8-122.7C943.4,165.4,918.8,153.9,892.7,153.9z"
			/>
	</g>
	<g>
		<g>
			<path fill="#AD9E7C" d="M846.1,241.9c-10.2-12.4-10.3-27.7,1.4-41.5l-11.6-14.1l14.4-11.9l11.4,13.8c7.3-4.6,15.4-7.8,23-8.9
				l6.5,19.6c-7.3,0.7-15.1,3.9-21.1,8.9c-8.2,6.8-9.6,13-5.8,17.7c4.2,5.1,10.1,5.3,27.1,0.8c21.9-5.9,36.2-4.1,47.5,9.6
				c11.4,13.9,11.7,30.1-0.7,45.3l11.9,14.4l-14.4,11.9l-11.2-13.6c-8.8,6.2-19.2,10.5-29.1,11.9l-6.7-19.8c9.2-0.8,19-5,26.1-10.8
				c9.1-7.5,11.7-15.8,6.5-22.1c-5.5-6.7-13.4-6.6-28.6-2.2C868,257.7,855.8,253.6,846.1,241.9z"/>
		</g>
	</g>
	<g>
		<path fill="#FFEAB7" d="M737.6,82.6c29.5,35.7,24.4,88.6-11.4,118.1c-35.8,29.5-88.6,24.4-118.1-11.4
			c-29.5-35.7-24.4-88.6,11.4-118.1C655.2,41.8,708.1,46.9,737.6,82.6z"/>
		<path d="M672.9,222.5c-25.9,0-50.3-11.5-66.8-31.5c-14.7-17.8-21.6-40.3-19.4-63.3c2.2-23,13.2-43.8,31.1-58.4
			c15.5-12.7,35-19.8,55-19.8c25.9,0,50.3,11.5,66.8,31.5c30.3,36.8,25.1,91.4-11.7,121.7C712.4,215.5,692.9,222.5,672.9,222.5z
			 M672.8,54.7c-18.8,0-37.1,6.6-51.7,18.6c-16.8,13.8-27.1,33.3-29.2,54.9c-2.1,21.6,4.4,42.7,18.2,59.5
			c15.5,18.8,38.4,29.6,62.8,29.6c18.8,0,37.1-6.6,51.7-18.6c34.6-28.5,39.5-79.9,11-114.5C720.1,65.5,697.2,54.7,672.8,54.7z"/>
	</g>
	<g>
		<g>
			<path fill="#AD9E7C" d="M629.3,136.8c-9.6-11.6-9.6-25.9,1.3-38.8l-10.9-13.2l13.5-11.1l10.6,12.9c6.8-4.3,14.4-7.2,21.5-8.3
				l6.1,18.3c-6.8,0.7-14.1,3.7-19.7,8.3c-7.7,6.3-9,12.1-5.4,16.5c3.9,4.7,9.4,5,25.3,0.8c20.5-5.5,33.9-3.8,44.4,9
				c10.7,13,10.9,28.1-0.7,42.3l11.1,13.4L713,198l-10.5-12.7c-8.2,5.8-18,9.8-27.2,11.1l-6.3-18.5c8.6-0.7,17.8-4.7,24.4-10.1
				c8.5-7,10.9-14.7,6.1-20.6c-5.2-6.3-12.5-6.1-26.7-2.1C649.7,151.6,638.3,147.8,629.3,136.8z"/>
		</g>
	</g>
	<g>
		<g>
			<path fill="#AD9E7C" d="M650.6,382.2c-14.6-3.9-23-15.6-21.6-32.5l-16.6-4.4l4.5-17l16.2,4.3c3.1-7.5,7.5-14.3,12.7-19.4
				l15.6,11.4c-5.1,4.5-9.4,11.2-11.3,18.3c-2.6,9.6-0.3,15.2,5.2,16.6c6,1.6,10.6-1.4,21.2-14.2c13.6-16.4,25.5-22.9,41.5-18.6
				c16.3,4.4,25.3,16.6,24.2,35l16.9,4.5l-4.5,17l-16-4.3c-3.4,9.5-9,18.5-15.8,25L707,392.5c6.6-5.6,11.8-14.2,14-22.5
				c2.9-10.7,0.3-18.4-7.1-20.4c-7.9-2.1-13.8,2.3-23,13.9C675.9,382.3,664.4,385.9,650.6,382.2z"/>
		</g>
	</g>
	<g>
		<g>
			<path fill="#FFEAB7" d="M537.3,290c-27.2,22.4-67.4,18.5-89.8-8.6c-22.4-27.2-18.5-67.4,8.7-89.8c27.2-22.4,67.4-18.6,89.8,8.7
				C568.4,227.4,564.5,267.6,537.3,290z"/>
			<path d="M496.8,307.2c-19.9,0-38.6-8.8-51.3-24.2c-23.3-28.3-19.3-70.2,9-93.5c11.9-9.8,26.9-15.2,42.2-15.2
				c19.9,0,38.6,8.8,51.3,24.2c23.3,28.3,19.3,70.2-9,93.5C527.1,301.8,512.1,307.2,496.8,307.2z M496.7,179.6c-14.2,0-28,5-38.9,14
				c-26.1,21.5-29.8,60.1-8.3,86.2c11.7,14.2,28.9,22.3,47.3,22.3c14.2,0,28-5,38.9-14c26.1-21.5,29.8-60.2,8.3-86.2
				C532.3,187.7,515.1,179.6,496.7,179.6z"/>
		</g>
		<g>
			<g>
				<path fill="#AD9E7C" d="M496.1,207.6c8.8-7.3,19.7-7.3,29.5,1l10.1-8.3l8.5,10.3l-9.8,8.1c3.3,5.2,5.5,10.9,6.3,16.4l-13.9,4.6
					c-0.5-5.2-2.8-10.7-6.3-15c-4.8-5.8-9.2-6.9-12.6-4.1c-3.6,3-3.8,7.2-0.6,19.3c4.2,15.6,2.9,25.8-6.8,33.8
					c-9.9,8.1-21.4,8.3-32.2-0.5l-10.2,8.4l-8.5-10.3l9.7-8c-4.4-6.3-7.5-13.7-8.4-20.7l14.1-4.8c0.6,6.5,3.5,13.5,7.7,18.5
					c5.3,6.5,11.2,8.3,15.7,4.6c4.8-3.9,4.7-9.5,1.6-20.3C484.9,223.2,487.8,214.5,496.1,207.6z"/>
			</g>
		</g>
	</g>
	<g>
		<path fill="#00C881" d="M1013.5,887c0,14.9-12.1,27-27,27H385.1c-14.9,0-27-12.1-27-27l0,0c0-14.9,12.1-27,27-27h601.4
			C1001.4,860,1013.5,872.1,1013.5,887L1013.5,887z"/>
		<path d="M986.5,916.6H385.1c-16.3,0-29.6-13.3-29.6-29.6s13.3-29.6,29.6-29.6h601.4c16.3,0,29.6,13.3,29.6,29.6
			S1002.8,916.6,986.5,916.6z M385.1,862.5c-13.5,0-24.4,11-24.4,24.4c0,13.5,11,24.4,24.4,24.4h601.4c13.5,0,24.4-11,24.4-24.4
			c0-13.5-11-24.4-24.4-24.4H385.1z"/>
	</g>
	<g>
		<g>
			<rect x="788" y="822" fill="#FFEAB7" width="152.7" height="37.9"/>
			<path d="M940.8,862.5H788c-1.4,0-2.6-1.2-2.6-2.6V822c0-1.4,1.2-2.6,2.6-2.6h152.7c1.4,0,2.6,1.2,2.6,2.6V860
				C943.4,861.4,942.2,862.5,940.8,862.5z M790.6,857.4h147.5v-32.8H790.6V857.4z"/>
		</g>
		<g>
			<path d="M889,852.5c-1.4,0-2.6-1.2-2.6-2.6V832c0-1.4,1.2-2.6,2.6-2.6c1.4,0,2.6,1.2,2.6,2.6v17.9
				C891.6,851.4,890.4,852.5,889,852.5z"/>
		</g>
		<g>
			<path d="M913.6,852.5c-1.4,0-2.6-1.2-2.6-2.6V832c0-1.4,1.2-2.6,2.6-2.6s2.6,1.2,2.6,2.6v17.9C916.2,851.4,915,852.5,913.6,852.5
				z"/>
		</g>
		<g>
			<rect x="792.7" y="828.6" fill="#D6C398" width="84.8" height="28.5"/>
		</g>
		<g>
			<path d="M815.2,852.5c-1.4,0-2.6-1.2-2.6-2.6V832c0-1.4,1.2-2.6,2.6-2.6c1.4,0,2.6,1.2,2.6,2.6v17.9
				C817.8,851.4,816.7,852.5,815.2,852.5z"/>
		</g>
		<g>
			<path d="M839.8,852.5c-1.4,0-2.6-1.2-2.6-2.6V832c0-1.4,1.2-2.6,2.6-2.6c1.4,0,2.6,1.2,2.6,2.6v17.9
				C842.4,851.4,841.2,852.5,839.8,852.5z"/>
		</g>
		<g>
			<path d="M864.4,852.5c-1.4,0-2.6-1.2-2.6-2.6V832c0-1.4,1.2-2.6,2.6-2.6c1.4,0,2.6,1.2,2.6,2.6v17.9
				C867,851.4,865.8,852.5,864.4,852.5z"/>
		</g>
	</g>
	<g>
		<g>
			<rect x="806.7" y="784.1" fill="#FFEAB7" width="152.7" height="37.9"/>
			<path d="M959.4,824.6H806.7c-1.4,0-2.6-1.2-2.6-2.6v-37.9c0-1.4,1.2-2.6,2.6-2.6h152.7c1.4,0,2.6,1.2,2.6,2.6V822
				C962,823.5,960.8,824.6,959.4,824.6z M809.3,819.4h147.5v-32.8H809.3V819.4z"/>
		</g>
		<g>
			<path d="M907.6,814.6c-1.4,0-2.6-1.2-2.6-2.6v-17.9c0-1.4,1.2-2.6,2.6-2.6c1.4,0,2.6,1.2,2.6,2.6V812
				C910.2,813.4,909.1,814.6,907.6,814.6z"/>
		</g>
		<g>
			<path d="M932.2,814.6c-1.4,0-2.6-1.2-2.6-2.6v-17.9c0-1.4,1.2-2.6,2.6-2.6c1.4,0,2.6,1.2,2.6,2.6V812
				C934.8,813.4,933.7,814.6,932.2,814.6z"/>
		</g>
		<g>
			<rect x="811.4" y="790.7" fill="#D6C398" width="84.8" height="28.5"/>
		</g>
		<g>
			<path d="M833.9,814.6c-1.4,0-2.6-1.2-2.6-2.6v-17.9c0-1.4,1.2-2.6,2.6-2.6s2.6,1.2,2.6,2.6V812
				C836.5,813.4,835.3,814.6,833.9,814.6z"/>
		</g>
		<g>
			<path d="M858.5,814.6c-1.4,0-2.6-1.2-2.6-2.6v-17.9c0-1.4,1.2-2.6,2.6-2.6c1.4,0,2.6,1.2,2.6,2.6V812
				C861.1,813.4,859.9,814.6,858.5,814.6z"/>
		</g>
		<g>
			<path d="M883.1,814.6c-1.4,0-2.6-1.2-2.6-2.6v-17.9c0-1.4,1.2-2.6,2.6-2.6s2.6,1.2,2.6,2.6V812
				C885.6,813.4,884.5,814.6,883.1,814.6z"/>
		</g>
	</g>
	<g>
		<g>
			<rect x="461.2" y="822" fill="#FFEAB7" width="152.7" height="37.9"/>
			<path d="M613.9,862.5H461.2c-1.4,0-2.6-1.2-2.6-2.6V822c0-1.4,1.2-2.6,2.6-2.6h152.7c1.4,0,2.6,1.2,2.6,2.6V860
				C616.5,861.4,615.4,862.5,613.9,862.5z M463.8,857.4h147.5v-32.8H463.8V857.4z"/>
		</g>
		<g>
			<path d="M562.2,852.5c-1.4,0-2.6-1.2-2.6-2.6V832c0-1.4,1.2-2.6,2.6-2.6s2.6,1.2,2.6,2.6v17.9
				C564.8,851.4,563.6,852.5,562.2,852.5z"/>
		</g>
		<g>
			<path d="M586.8,852.5c-1.4,0-2.6-1.2-2.6-2.6V832c0-1.4,1.2-2.6,2.6-2.6s2.6,1.2,2.6,2.6v17.9
				C589.4,851.4,588.2,852.5,586.8,852.5z"/>
		</g>
		<g>
			<rect x="465.9" y="828.6" fill="#D6C398" width="84.8" height="28.5"/>
		</g>
		<g>
			<path d="M488.4,852.5c-1.4,0-2.6-1.2-2.6-2.6V832c0-1.4,1.2-2.6,2.6-2.6s2.6,1.2,2.6,2.6v17.9C491,851.4,489.8,852.5,488.4,852.5
				z"/>
		</g>
		<g>
			<path d="M513,852.5c-1.4,0-2.6-1.2-2.6-2.6V832c0-1.4,1.2-2.6,2.6-2.6s2.6,1.2,2.6,2.6v17.9C515.6,851.4,514.4,852.5,513,852.5z"
				/>
		</g>
		<g>
			<path d="M537.6,852.5c-1.4,0-2.6-1.2-2.6-2.6V832c0-1.4,1.2-2.6,2.6-2.6c1.4,0,2.6,1.2,2.6,2.6v17.9
				C540.2,851.4,539,852.5,537.6,852.5z"/>
		</g>
	</g>
	<g>
		<g>
			<rect x="436.6" y="784.1" fill="#FFEAB7" width="152.7" height="37.9"/>
			<path d="M589.4,824.6H436.6c-1.4,0-2.6-1.2-2.6-2.6v-37.9c0-1.4,1.2-2.6,2.6-2.6h152.7c1.4,0,2.6,1.2,2.6,2.6V822
				C591.9,823.5,590.8,824.6,589.4,824.6z M439.2,819.4h147.5v-32.8H439.2V819.4z"/>
		</g>
		<g>
			<path d="M537.6,814.6c-1.4,0-2.6-1.2-2.6-2.6v-17.9c0-1.4,1.2-2.6,2.6-2.6c1.4,0,2.6,1.2,2.6,2.6V812
				C540.2,813.4,539,814.6,537.6,814.6z"/>
		</g>
		<g>
			<path d="M562.2,814.6c-1.4,0-2.6-1.2-2.6-2.6v-17.9c0-1.4,1.2-2.6,2.6-2.6s2.6,1.2,2.6,2.6V812
				C564.8,813.4,563.6,814.6,562.2,814.6z"/>
		</g>
		<g>
			<rect x="441.3" y="790.7" fill="#D6C398" width="84.8" height="28.5"/>
		</g>
		<g>
			<path d="M463.8,814.6c-1.4,0-2.6-1.2-2.6-2.6v-17.9c0-1.4,1.2-2.6,2.6-2.6c1.4,0,2.6,1.2,2.6,2.6V812
				C466.4,813.4,465.2,814.6,463.8,814.6z"/>
		</g>
		<g>
			<path d="M488.4,814.6c-1.4,0-2.6-1.2-2.6-2.6v-17.9c0-1.4,1.2-2.6,2.6-2.6s2.6,1.2,2.6,2.6V812
				C491,813.4,489.8,814.6,488.4,814.6z"/>
		</g>
		<g>
			<path d="M513,814.6c-1.4,0-2.6-1.2-2.6-2.6v-17.9c0-1.4,1.2-2.6,2.6-2.6s2.6,1.2,2.6,2.6V812C515.6,813.4,514.4,814.6,513,814.6z
				"/>
		</g>
	</g>
	<g>
		<g>
			<rect x="764.6" y="746.2" fill="#FFEAB7" width="152.7" height="37.9"/>
			<path d="M917.3,786.7H764.6c-1.4,0-2.6-1.2-2.6-2.6v-37.9c0-1.4,1.2-2.6,2.6-2.6h152.7c1.4,0,2.6,1.2,2.6,2.6v37.9
				C919.9,785.5,918.7,786.7,917.3,786.7z M767.1,781.5h147.5v-32.8H767.1V781.5z"/>
		</g>
		<g>
			<path d="M865.5,776.7c-1.4,0-2.6-1.2-2.6-2.6v-17.9c0-1.4,1.2-2.6,2.6-2.6s2.6,1.2,2.6,2.6v17.9
				C868.1,775.5,866.9,776.7,865.5,776.7z"/>
		</g>
		<g>
			<path d="M890.1,776.7c-1.4,0-2.6-1.2-2.6-2.6v-17.9c0-1.4,1.2-2.6,2.6-2.6s2.6,1.2,2.6,2.6v17.9
				C892.7,775.5,891.5,776.7,890.1,776.7z"/>
		</g>
		<g>
			<rect x="769.2" y="752.7" fill="#D6C398" width="84.8" height="28.5"/>
		</g>
		<g>
			<path d="M791.7,776.7c-1.4,0-2.6-1.2-2.6-2.6v-17.9c0-1.4,1.2-2.6,2.6-2.6s2.6,1.2,2.6,2.6v17.9
				C794.3,775.5,793.2,776.7,791.7,776.7z"/>
		</g>
		<g>
			<path d="M816.3,776.7c-1.4,0-2.6-1.2-2.6-2.6v-17.9c0-1.4,1.2-2.6,2.6-2.6c1.4,0,2.6,1.2,2.6,2.6v17.9
				C818.9,775.5,817.8,776.7,816.3,776.7z"/>
		</g>
		<g>
			<path d="M840.9,776.7c-1.4,0-2.6-1.2-2.6-2.6v-17.9c0-1.4,1.2-2.6,2.6-2.6s2.6,1.2,2.6,2.6v17.9
				C843.5,775.5,842.3,776.7,840.9,776.7z"/>
		</g>
	</g>
	<g>
		<g>
			<rect x="816" y="708.2" fill="#FFEAB7" width="152.7" height="37.9"/>
			<path d="M968.7,748.8H816c-1.4,0-2.6-1.2-2.6-2.6v-37.9c0-1.4,1.2-2.6,2.6-2.6h152.7c1.4,0,2.6,1.2,2.6,2.6v37.9
				C971.3,747.6,970.2,748.8,968.7,748.8z M818.6,743.6h147.5v-32.8H818.6V743.6z"/>
		</g>
		<g>
			<path d="M917,738.7c-1.4,0-2.6-1.2-2.6-2.6v-17.9c0-1.4,1.2-2.6,2.6-2.6c1.4,0,2.6,1.2,2.6,2.6v17.9
				C919.6,737.6,918.4,738.7,917,738.7z"/>
		</g>
		<g>
			<path d="M941.6,738.7c-1.4,0-2.6-1.2-2.6-2.6v-17.9c0-1.4,1.2-2.6,2.6-2.6c1.4,0,2.6,1.2,2.6,2.6v17.9
				C944.2,737.6,943,738.7,941.6,738.7z"/>
		</g>
		<g>
			<rect x="820.7" y="714.8" fill="#D6C398" width="84.8" height="28.5"/>
		</g>
		<g>
			<path d="M843.2,738.7c-1.4,0-2.6-1.2-2.6-2.6v-17.9c0-1.4,1.2-2.6,2.6-2.6c1.4,0,2.6,1.2,2.6,2.6v17.9
				C845.8,737.6,844.6,738.7,843.2,738.7z"/>
		</g>
		<g>
			<path d="M867.8,738.7c-1.4,0-2.6-1.2-2.6-2.6v-17.9c0-1.4,1.2-2.6,2.6-2.6s2.6,1.2,2.6,2.6v17.9
				C870.4,737.6,869.2,738.7,867.8,738.7z"/>
		</g>
		<g>
			<path d="M892.4,738.7c-1.4,0-2.6-1.2-2.6-2.6v-17.9c0-1.4,1.2-2.6,2.6-2.6c1.4,0,2.6,1.2,2.6,2.6v17.9
				C895,737.6,893.8,738.7,892.4,738.7z"/>
		</g>
	</g>
	<g>
		<g>
			<rect x="855" y="670.3" fill="#FFEAB7" width="152.7" height="37.9"/>
			<path d="M1007.7,710.8H855c-1.4,0-2.6-1.2-2.6-2.6v-37.9c0-1.4,1.2-2.6,2.6-2.6h152.7c1.4,0,2.6,1.2,2.6,2.6v37.9
				C1010.3,709.7,1009.1,710.8,1007.7,710.8z M857.6,705.6h147.5v-32.8H857.6V705.6z"/>
		</g>
		<g>
			<path d="M956,700.8c-1.4,0-2.6-1.2-2.6-2.6v-17.9c0-1.4,1.2-2.6,2.6-2.6s2.6,1.2,2.6,2.6v17.9C958.5,699.6,957.4,700.8,956,700.8
				z"/>
		</g>
		<g>
			<path d="M980.5,700.8c-1.4,0-2.6-1.2-2.6-2.6v-17.9c0-1.4,1.2-2.6,2.6-2.6s2.6,1.2,2.6,2.6v17.9
				C983.1,699.6,982,700.8,980.5,700.8z"/>
		</g>
		<g>
			<rect x="859.7" y="676.9" fill="#D6C398" width="84.8" height="28.5"/>
		</g>
		<g>
			<path d="M882.2,700.8c-1.4,0-2.6-1.2-2.6-2.6v-17.9c0-1.4,1.2-2.6,2.6-2.6c1.4,0,2.6,1.2,2.6,2.6v17.9
				C884.8,699.6,883.6,700.8,882.2,700.8z"/>
		</g>
		<g>
			<path d="M906.8,700.8c-1.4,0-2.6-1.2-2.6-2.6v-17.9c0-1.4,1.2-2.6,2.6-2.6c1.4,0,2.6,1.2,2.6,2.6v17.9
				C909.4,699.6,908.2,700.8,906.8,700.8z"/>
		</g>
		<g>
			<path d="M931.4,700.8c-1.4,0-2.6-1.2-2.6-2.6v-17.9c0-1.4,1.2-2.6,2.6-2.6c1.4,0,2.6,1.2,2.6,2.6v17.9
				C933.9,699.6,932.8,700.8,931.4,700.8z"/>
		</g>
	</g>
	<g>
		<g>
			<rect x="803.2" y="632.4" fill="#FFEAB7" width="152.7" height="37.9"/>
			<path d="M956,672.9H803.2c-1.4,0-2.6-1.2-2.6-2.6v-37.9c0-1.4,1.2-2.6,2.6-2.6H956c1.4,0,2.6,1.2,2.6,2.6v37.9
				C958.5,671.7,957.4,672.9,956,672.9z M805.8,667.7h147.5V635H805.8V667.7z"/>
		</g>
		<g>
			<path d="M904.2,662.9c-1.4,0-2.6-1.2-2.6-2.6v-17.9c0-1.4,1.2-2.6,2.6-2.6s2.6,1.2,2.6,2.6v17.9
				C906.8,661.7,905.6,662.9,904.2,662.9z"/>
		</g>
		<g>
			<path d="M928.8,662.9c-1.4,0-2.6-1.2-2.6-2.6v-17.9c0-1.4,1.2-2.6,2.6-2.6c1.4,0,2.6,1.2,2.6,2.6v17.9
				C931.4,661.7,930.2,662.9,928.8,662.9z"/>
		</g>
		<g>
			<rect x="807.9" y="638.9" fill="#D6C398" width="84.8" height="28.5"/>
		</g>
		<g>
			<path d="M830.4,662.9c-1.4,0-2.6-1.2-2.6-2.6v-17.9c0-1.4,1.2-2.6,2.6-2.6c1.4,0,2.6,1.2,2.6,2.6v17.9
				C833,661.7,831.8,662.9,830.4,662.9z"/>
		</g>
		<g>
			<path d="M855,662.9c-1.4,0-2.6-1.2-2.6-2.6v-17.9c0-1.4,1.2-2.6,2.6-2.6s2.6,1.2,2.6,2.6v17.9C857.6,661.7,856.4,662.9,855,662.9
				z"/>
		</g>
		<g>
			<path d="M879.6,662.9c-1.4,0-2.6-1.2-2.6-2.6v-17.9c0-1.4,1.2-2.6,2.6-2.6c1.4,0,2.6,1.2,2.6,2.6v17.9
				C882.2,661.7,881,662.9,879.6,662.9z"/>
		</g>
	</g>
	<g>
		<g>
			<rect x="816" y="594.4" fill="#FFEAB7" width="152.7" height="37.9"/>
			<path d="M968.7,635H816c-1.4,0-2.6-1.2-2.6-2.6v-37.9c0-1.4,1.2-2.6,2.6-2.6h152.7c1.4,0,2.6,1.2,2.6,2.6v37.9
				C971.3,633.8,970.2,635,968.7,635z M818.6,629.8h147.5V597H818.6V629.8z"/>
		</g>
		<g>
			<path d="M917,624.9c-1.4,0-2.6-1.2-2.6-2.6v-17.9c0-1.4,1.2-2.6,2.6-2.6c1.4,0,2.6,1.2,2.6,2.6v17.9
				C919.6,623.8,918.4,624.9,917,624.9z"/>
		</g>
		<g>
			<path d="M941.6,624.9c-1.4,0-2.6-1.2-2.6-2.6v-17.9c0-1.4,1.2-2.6,2.6-2.6c1.4,0,2.6,1.2,2.6,2.6v17.9
				C944.2,623.8,943,624.9,941.6,624.9z"/>
		</g>
		<g>
			<rect x="820.7" y="601" fill="#D6C398" width="84.8" height="28.5"/>
		</g>
		<g>
			<path d="M843.2,624.9c-1.4,0-2.6-1.2-2.6-2.6v-17.9c0-1.4,1.2-2.6,2.6-2.6c1.4,0,2.6,1.2,2.6,2.6v17.9
				C845.8,623.8,844.6,624.9,843.2,624.9z"/>
		</g>
		<g>
			<path d="M867.8,624.9c-1.4,0-2.6-1.2-2.6-2.6v-17.9c0-1.4,1.2-2.6,2.6-2.6s2.6,1.2,2.6,2.6v17.9
				C870.4,623.8,869.2,624.9,867.8,624.9z"/>
		</g>
		<g>
			<path d="M892.4,624.9c-1.4,0-2.6-1.2-2.6-2.6v-17.9c0-1.4,1.2-2.6,2.6-2.6c1.4,0,2.6,1.2,2.6,2.6v17.9
				C895,623.8,893.8,624.9,892.4,624.9z"/>
		</g>
	</g>
	<g>
		<path fill="#00B373" d="M982.5,898.6c0-6.4-5.2-11.6-11.6-11.6H421.7c-6.4,0-11.6,5.2-11.6,11.6l0,0c0,6.4,5.2,11.6,11.6,11.6
			h549.2C977.3,910.1,982.5,904.9,982.5,898.6L982.5,898.6z"/>
	</g>
	<g>
		<path d="M1328.7,537.6H970.7c-1.4,0-2.6-1.2-2.6-2.6V346.1c0-1.4,1.2-2.6,2.6-2.6h357.9c1.4,0,2.6,1.2,2.6,2.6V535
			C1331.3,536.4,1330.1,537.6,1328.7,537.6z M973.3,532.4h352.8V348.7H973.3V532.4z"/>
	</g>
	<g>
		<path d="M1096.7,492h-94.5c-1.4,0-2.6-1.2-2.6-2.6v-97.8c0-1.4,1.2-2.6,2.6-2.6h94.5c1.4,0,2.6,1.2,2.6,2.6v97.8
			C1099.3,490.9,1098.1,492,1096.7,492z M1004.8,486.8h89.3v-92.6h-89.3V486.8z"/>
	</g>
	<g>
		<path d="M1287.3,404.2h-159.1c-1.4,0-2.6-1.2-2.6-2.6s1.2-2.6,2.6-2.6h159.1c1.4,0,2.6,1.2,2.6,2.6S1288.7,404.2,1287.3,404.2z"/>
	</g>
	<g>
		<path d="M1287.3,443.1h-159.1c-1.4,0-2.6-1.2-2.6-2.6s1.2-2.6,2.6-2.6h159.1c1.4,0,2.6,1.2,2.6,2.6S1288.7,443.1,1287.3,443.1z"/>
	</g>
	<g>
		<path d="M1287.3,482.1h-159.1c-1.4,0-2.6-1.2-2.6-2.6s1.2-2.6,2.6-2.6h159.1c1.4,0,2.6,1.2,2.6,2.6S1288.7,482.1,1287.3,482.1z"/>
	</g>
	<g>
		<g>
			<rect x="1271.2" y="175.4" fill="#FFFFFF" width="30.3" height="40.9"/>
			<path d="M1301.5,218.9h-30.3c-1.4,0-2.6-1.2-2.6-2.6v-40.9c0-1.4,1.2-2.6,2.6-2.6h30.3c1.4,0,2.6,1.2,2.6,2.6v40.9
				C1304.1,217.7,1303,218.9,1301.5,218.9z M1273.8,213.7h25.1V178h-25.1V213.7z"/>
		</g>
		<g>
			<polygon fill="#FFFFFF" points="1271.2,419.3 1271.2,470.7 1286.4,498.3 1301.5,470.7 1301.5,419.3 			"/>
			<path d="M1286.4,500.9c-0.9,0-1.8-0.5-2.3-1.3l-15.2-27.7c-0.2-0.4-0.3-0.8-0.3-1.2v-51.4c0-1.4,1.2-2.6,2.6-2.6h30.3
				c1.4,0,2.6,1.2,2.6,2.6v51.4c0,0.4-0.1,0.9-0.3,1.2l-15.2,27.7C1288.2,500.4,1287.3,500.9,1286.4,500.9z M1273.8,470l12.6,23
				l12.6-23v-48.2h-25.1V470z"/>
		</g>
		<g>
			<rect x="1271.2" y="216.3" fill="#FFFFFF" width="30.3" height="203"/>
			<path d="M1301.5,421.8h-30.3c-1.4,0-2.6-1.2-2.6-2.6v-203c0-1.4,1.2-2.6,2.6-2.6h30.3c1.4,0,2.6,1.2,2.6,2.6v203
				C1304.1,420.7,1303,421.8,1301.5,421.8z M1273.8,416.7h25.1V218.9h-25.1V416.7z"/>
		</g>
	</g>
	<g>
		<g>
			<path d="M1055.6,492.5h-11.8c-1.4,0-2.6-1.2-2.6-2.6v-8.8c-6.4-0.8-12.6-2.9-17.7-6c-1.1-0.6-1.5-2-1.1-3.1l4.7-12.3
				c0.3-0.7,0.9-1.3,1.6-1.6c0.8-0.2,1.6-0.1,2.2,0.3c4.3,2.9,10.2,4.7,15.5,4.7c2.8,0,9.4-0.5,9.4-5.5c0-3.4-1.8-5.9-11.5-10.1
				c-14.6-6.4-20.6-13.7-20.6-25.3c0-11,6.4-18.9,17.3-21.7v-9.4c0-1.4,1.2-2.6,2.6-2.6h11.8c1.4,0,2.6,1.2,2.6,2.6v9
				c4.9,0.9,9.6,2.6,13.5,4.9c1.1,0.6,1.5,2,1.1,3.2l-4.7,12.1c-0.3,0.7-0.9,1.3-1.6,1.5c-0.8,0.2-1.6,0.1-2.2-0.3
				c-3.5-2.3-8.1-3.7-12.4-3.7c-3.3,0-7.3,0.6-7.3,3.7c0,2.2,0.8,4.1,11.3,8.9c14.7,6.7,20.7,14.3,20.7,26
				c0,12.1-6.7,20.6-18.5,23.8v9.7C1058.1,491.3,1057,492.5,1055.6,492.5z M1046.4,487.3h6.6v-9.1c0-1.2,0.9-2.3,2.1-2.5
				c10.7-2.2,16.4-8.8,16.4-19.2c0-9.5-5-15.5-17.7-21.3c-9.9-4.5-14.4-7.6-14.4-13.6c0-2.1,0.9-8.8,12.5-8.8c4.3,0,8.7,1.1,12.5,3
				l2.8-7.2c-3.5-1.7-7.6-3-11.8-3.5c-1.3-0.2-2.3-1.3-2.3-2.6v-8.7h-6.6v8.9c0,1.3-0.9,2.3-2.1,2.5c-9.6,1.7-15.2,7.9-15.2,17
				c0,8,2.9,14.2,17.5,20.5c9.2,4,14.6,7.7,14.6,14.9c0,5.2-3.8,10.7-14.6,10.7c-5.3,0-11-1.5-15.7-4l-2.8,7.3
				c4.6,2.4,10.2,4,15.9,4.5c1.3,0.1,2.4,1.2,2.4,2.6V487.3z"/>
		</g>
	</g>
	<g>
		<path d="M1141.2,596.4c-0.2,0-0.3,0-0.5,0c-0.1,0-0.3-0.1-0.4-0.1c-1.2-0.4-1.9-1.7-1.7-2.9c0.2-1.2,1.2-2.2,2.5-2.2
			c1.3,0,2.6,0.9,2.8,2.2c0.2,1.3-0.4,2.5-1.6,2.9C1142,596.3,1141.6,596.4,1141.2,596.4z"/>
	</g>
	<g>
		<path d="M1308.9,865.1H1176c-1.4,0-2.6-1.2-2.6-2.6V822c0-1.4,1.2-2.6,2.6-2.6h132.9c0.6,0,1.2,0.2,1.6,0.6l23.6,19
			c0.6,0.5,0.9,1.2,1,1.9c0,0.8-0.3,1.5-0.8,2l-23.6,21.6C1310.1,864.9,1309.5,865.1,1308.9,865.1z M1178.6,860h129.3l20.6-18.8
			l-20.5-16.5h-129.4V860z"/>
	</g>
	<g>
		<path d="M1287.4,779h-132.9c-1.4,0-2.6-1.2-2.6-2.6v-40.5c0-1.4,1.2-2.6,2.6-2.6h132.9c0.6,0,1.2,0.2,1.6,0.6l23.6,19
			c0.6,0.5,0.9,1.2,1,1.9c0,0.8-0.3,1.5-0.8,2l-23.6,21.6C1288.7,778.8,1288.1,779,1287.4,779z M1157.1,773.9h129.3L1307,755
			l-20.5-16.5h-129.4V773.9z"/>
	</g>
	<g>
		<path d="M1263.6,692.9h-132.9c-1.4,0-2.6-1.2-2.6-2.6v-40.5c0-1.4,1.2-2.6,2.6-2.6h132.9c0.6,0,1.2,0.2,1.6,0.6l23.6,19
			c0.6,0.5,0.9,1.2,1,1.9c0,0.8-0.3,1.5-0.8,2l-23.6,21.6C1264.9,692.7,1264.3,692.9,1263.6,692.9z M1133.3,687.8h129.3l20.6-18.8
			l-20.6-16.5h-129.4V687.8z"/>
	</g>
	<g>
		<path d="M358.8,346.5H225.9c-1.4,0-2.6-1.2-2.6-2.6v-40.5c0-1.4,1.2-2.6,2.6-2.6h132.9c0.6,0,1.2,0.2,1.6,0.6l23.6,19
			c0.6,0.5,0.9,1.2,1,1.9c0,0.8-0.3,1.5-0.8,2l-23.6,21.6C360,346.3,359.4,346.5,358.8,346.5z M228.5,341.3h129.3l20.6-18.8
			L357.9,306H228.5V341.3z"/>
	</g>
	<g>
		<path d="M337.3,260.4H204.4c-1.4,0-2.6-1.2-2.6-2.6v-40.5c0-1.4,1.2-2.6,2.6-2.6h132.9c0.6,0,1.2,0.2,1.6,0.6l23.6,19
			c0.6,0.5,0.9,1.2,1,1.9c0,0.8-0.3,1.5-0.8,2l-23.6,21.6C338.6,260.2,338,260.4,337.3,260.4z M207,255.2h129.3l20.6-18.8
			l-20.6-16.5H207V255.2z"/>
	</g>
	<g>
		<path d="M313.5,174.3H180.6c-1.4,0-2.6-1.2-2.6-2.6v-40.5c0-1.4,1.2-2.6,2.6-2.6h132.9c0.6,0,1.2,0.2,1.6,0.6l23.6,19
			c0.6,0.5,0.9,1.2,1,1.9c0,0.8-0.3,1.5-0.8,2l-23.6,21.6C314.8,174.1,314.2,174.3,313.5,174.3z M183.2,169.2h129.3l20.6-18.8
			l-20.6-16.5H183.2V169.2z"/>
	</g>
	<g>
		<path fill="#FFFFFF" d="M1224.2,739.7L1224.2,739.7c-33.3-33.8-39.8-66.3-40.9-80.4c-0.7,0.1-1.5,0.2-2.3,0.2h-79.7
			c-0.5,0-1-0.1-1.5-0.2c-1.1,14.1-7.6,46.6-40.9,80.3h0.1c-16.1,16.9-25.8,38.7-25.8,62.6c0,53.4,48.6,96.7,108.5,96.7
			c59.9,0,108.5-43.3,108.5-96.7C1250,778.3,1240.3,756.5,1224.2,739.7z"/>
		<path d="M1141.5,901.5c-61.3,0-111.1-44.5-111.1-99.3c0-23.4,9.3-46.1,26.2-64c0.1-0.1,0.2-0.3,0.3-0.4
			c33.3-33.7,39.2-66.3,40.2-78.7c0.1-0.7,0.4-1.3,0.9-1.8c0.5-0.4,1.2-0.6,1.9-0.6l0.7,0.1c0.2,0,0.4,0.1,0.6,0.1h79.7
			c0.6,0,1.3-0.1,1.9-0.2c0.7-0.1,1.4,0.1,2,0.5c0.6,0.4,0.9,1.1,1,1.8c1,12.4,6.9,44.8,39.8,78.4c0.4,0.3,0.7,0.6,1,1.1
			c16.8,17.9,26,40.4,26,63.7C1252.6,856.9,1202.8,901.5,1141.5,901.5z M1061,741.1c-0.1,0.1-0.2,0.2-0.2,0.3
			c-16.2,17-25.1,38.6-25.1,60.8c0,51.9,47.5,94.1,105.9,94.1c58.4,0,105.9-42.2,105.9-94.1c0-22.2-8.9-43.8-25.1-60.8
			c-0.1-0.1-0.2-0.2-0.3-0.3c-31.3-31.8-39.3-62.3-41.1-79.1h-78.8C1100.3,678.8,1092.3,709.3,1061,741.1z"/>
	</g>
	<g>
		<path fill="#FFFFFF" d="M1181,629.9c0.6,0,1.1,0.1,1.7,0.2l11.2-23.4c0,0-19.9-16.6-34.7,3.3l-3,6.9c0,0,1.4-18.9-15-23.1
			c-16.4,4.2-15,23.1-15,23.1l-3-6.9c-14.8-19.9-34.7-3.3-34.7-3.3l11.2,23.4c0.4,0,0.9-0.1,1.3-0.1H1181z"/>
		<path d="M1182.7,632.7c-0.1,0-0.2,0-0.3,0c0,0-0.4-0.1-0.4-0.1c-0.3,0-0.6-0.1-1-0.1h-79.7c-0.2,0-0.4,0-0.5,0.1
			c0,0-0.5,0.1-0.5,0.1c-1.1,0.1-2.1-0.5-2.6-1.5l-11.2-23.4c-0.5-1.1-0.2-2.3,0.7-3.1c0.3-0.3,8.6-7.1,18.9-7.1
			c7.3,0,13.6,3.3,18.8,9.9c1.8-6.7,6.4-13.8,15.9-16.2c0.4-0.1,0.9-0.1,1.3,0c9.5,2.4,14.1,9.5,15.9,16.2
			c5.2-6.6,11.5-9.9,18.8-9.9c10.3,0,18.5,6.8,18.9,7.1c0.9,0.8,1.2,2,0.7,3.1l-11.2,23.4C1184.6,632.1,1183.7,632.7,1182.7,632.7z
			 M1101.5,627.3h79.5c0.1,0,0.1,0,0.2,0l9.5-19.8c-2.6-1.7-8-4.7-14-4.7c-5.8,0-10.9,2.9-15.2,8.5l-2.8,6.6c-0.5,1.2-1.8,1.8-3,1.5
			c-1.2-0.3-2.1-1.4-2-2.7c0.1-0.7,1-16.3-12.4-20.2c-13.4,3.9-12.4,19.5-12.4,20.2c0.1,1.3-0.7,2.4-2,2.7c-1.2,0.3-2.5-0.3-3-1.5
			l-2.8-6.6c-4.3-5.7-9.4-8.5-15.2-8.5c-6,0-11.4,3-14,4.7L1101.5,627.3z"/>
	</g>
	<g>
		<path fill="#FFFFFF" d="M1182.7,630.1c-0.6-0.1-1.1-0.2-1.7-0.2h-79.7c-0.5,0-0.9,0.1-1.3,0.1c-7.5,0.7-13.4,6.9-13.4,14.6
			c0,7.6,5.8,13.8,13.2,14.6c0.5,0,1,0.2,1.5,0.2h79.7c0.8,0,1.5-0.1,2.3-0.2c7.1-1.1,12.5-7.1,12.5-14.5
			C1195.8,637.1,1190.1,631,1182.7,630.1z"/>
		<path d="M1181,662h-79.7c-0.5,0-0.9-0.1-1.3-0.1c-9.3-1-16-8.4-16-17.2c0-9,6.8-16.4,15.8-17.2c0.7-0.1,1.1-0.1,1.6-0.1h79.7
			c0.6,0,1.1,0.1,1.7,0.1c9.1,1.1,15.7,8.4,15.7,17.2c0,8.6-6.2,15.8-14.7,17.1C1182.8,661.9,1181.9,662,1181,662z M1101.3,632.5
			c-0.2,0-0.4,0-0.5,0.1c0,0-0.5,0.1-0.5,0.1c-6.3,0.6-11.1,5.8-11.1,12.1c0,6.2,4.7,11.4,10.9,12l0.6,0.1c0.2,0,0.4,0.1,0.6,0.1
			h79.7c0.6,0,1.3-0.1,1.9-0.2c6-0.9,10.3-6,10.3-12c0-6.1-4.6-11.3-10.8-12c-0.8-0.1-1.1-0.2-1.4-0.2H1101.3z"/>
	</g>
	<g>
		<g>
			<path fill="#FFFFFF" d="M1108.6,753.2c0-14.4,8.6-24.9,24.5-27.7v-16.3h16.7v15.9c7.6,1,15,3.4,20.9,6.9l-6.6,17.1
				c-5.4-3.6-12.6-5.9-19.6-5.9c-9.5,0-14,3.4-14,8.9c0,5.9,3.9,9.4,18.2,15.9c18.4,8.4,27.2,17.7,27.2,33.5c0,16-9,27.3-26.2,30.7
				V849h-16.7v-15.7c-9.6-0.7-19.2-3.7-26.8-8.3l6.6-17.4c6.8,4.7,15.9,7.4,24.1,7.4c10.5,0,17-4.2,17-11.5
				c0-7.8-5.5-12.1-18.4-17.7C1114.7,776.5,1108.6,766.8,1108.6,753.2z"/>
			<path d="M1149.8,851.6h-16.7c-1.4,0-2.6-1.2-2.6-2.6v-13.4c-9.3-1.1-18.3-4-25.5-8.5c-1.1-0.6-1.5-2-1.1-3.1l6.6-17.4
				c0.3-0.7,0.9-1.3,1.6-1.6c0.8-0.2,1.6-0.1,2.2,0.3c6.2,4.3,14.9,6.9,22.6,6.9c4.3,0,14.4-0.9,14.4-8.9c0-6.1-4.1-9.8-16.9-15.4
				c-20.3-8.8-28.5-18.9-28.5-34.8c0-15.3,9.1-26.3,24.5-29.8v-14.2c0-1.4,1.2-2.6,2.6-2.6h16.7c1.4,0,2.6,1.2,2.6,2.6v13.7
				c7.2,1.2,14.1,3.6,19.6,6.9c1.1,0.6,1.5,2,1.1,3.2l-6.6,17.1c-0.3,0.7-0.9,1.3-1.6,1.5c-0.8,0.2-1.6,0.1-2.2-0.3
				c-5.1-3.4-11.9-5.4-18.1-5.4c-5.2,0-11.4,1.1-11.4,6.3c0,4.1,2.4,7.1,16.7,13.6c20.4,9.3,28.7,19.7,28.7,35.9
				c0,16.8-9.5,28.7-26.2,32.8V849C1152.4,850.4,1151.2,851.6,1149.8,851.6z M1135.7,846.4h11.5v-14c0-1.2,0.9-2.3,2.1-2.5
				c15.5-3.1,24.1-13.1,24.1-28.2c0-14-7.2-22.7-25.7-31.2c-13.6-6.2-19.7-10.3-19.7-18.3c0-3.4,1.6-11.5,16.6-11.5
				c6.3,0,12.8,1.7,18.2,4.6l4.7-12.2c-5.2-2.7-11.5-4.7-18-5.5c-1.3-0.2-2.3-1.3-2.3-2.6v-13.3h-11.5v13.7c0,1.3-0.9,2.3-2.1,2.5
				c-14.2,2.6-22.4,11.7-22.4,25.2c0,11.4,4.3,20.8,25.4,30c13,5.6,20,10.5,20,20.1c0,8.7-7.5,14.1-19.6,14.1
				c-7.8,0-16-2.2-22.8-6.1l-4.7,12.4c6.9,3.8,15.2,6.2,23.8,6.9c1.3,0.1,2.4,1.2,2.4,2.6V846.4z"/>
		</g>
	</g>
	<g>
		<g>
			<path fill="#FFFFFF" d="M1233.4,161c0-56.7-46-102.7-102.7-102.7c-56.7,0-102.7,46-102.7,102.7c0,56.7,46,102.7,102.7,102.7v47
				l59.4-65.9l-0.1,0C1216.2,226.2,1233.4,195.6,1233.4,161z"/>
			<path d="M1130.7,313.3c-0.3,0-0.6-0.1-0.9-0.2c-1-0.4-1.7-1.3-1.7-2.4v-44.4c-56.9-1.4-102.7-48.1-102.7-105.2
				c0-58,47.2-105.3,105.3-105.3c58,0,105.3,47.2,105.3,105.3c0,33.8-16.4,65.7-44,85.5l-59.3,65.9
				C1132.2,313,1131.5,313.3,1130.7,313.3z M1130.7,60.9c-55.2,0-100.1,44.9-100.1,100.1s44.9,100.1,100.1,100.1
				c1.4,0,2.6,1.2,2.6,2.6v40.2l54.5-60.5c0.2-0.3,0.4-0.6,0.7-0.8c26.5-18.8,42.3-49.3,42.3-81.6
				C1230.8,105.8,1185.9,60.9,1130.7,60.9z"/>
		</g>
		<g>
			<path fill="#FFFFFF" d="M1084.6,161.8c0,7.9-6.4,14.3-14.3,14.3c-7.9,0-14.3-6.4-14.3-14.3c0-7.9,6.4-14.3,14.3-14.3
				C1078.2,147.5,1084.6,153.9,1084.6,161.8z"/>
			<path d="M1070.3,178.7c-9.3,0-16.9-7.6-16.9-16.9c0-9.3,7.6-16.9,16.9-16.9c9.3,0,16.9,7.6,16.9,16.9
				C1087.2,171.1,1079.6,178.7,1070.3,178.7z M1070.3,150.1c-6.5,0-11.7,5.3-11.7,11.7c0,6.5,5.3,11.7,11.7,11.7s11.7-5.3,11.7-11.7
				C1082,155.3,1076.7,150.1,1070.3,150.1z"/>
		</g>
		<g>
			<path fill="#FFFFFF" d="M1145.1,161.8c0,7.9-6.4,14.3-14.3,14.3c-7.9,0-14.3-6.4-14.3-14.3c0-7.9,6.4-14.3,14.3-14.3
				C1138.7,147.5,1145.1,153.9,1145.1,161.8z"/>
			<path d="M1130.7,178.7c-9.3,0-16.9-7.6-16.9-16.9c0-9.3,7.6-16.9,16.9-16.9s16.9,7.6,16.9,16.9
				C1147.7,171.1,1140.1,178.7,1130.7,178.7z M1130.7,150.1c-6.5,0-11.7,5.3-11.7,11.7c0,6.5,5.3,11.7,11.7,11.7
				c6.5,0,11.7-5.3,11.7-11.7C1142.5,155.3,1137.2,150.1,1130.7,150.1z"/>
		</g>
		<g>
			<path fill="#FFFFFF" d="M1205.6,161.8c0,7.9-6.4,14.3-14.3,14.3c-7.9,0-14.3-6.4-14.3-14.3c0-7.9,6.4-14.3,14.3-14.3
				C1199.1,147.5,1205.6,153.9,1205.6,161.8z"/>
			<path d="M1191.2,178.7c-9.3,0-16.9-7.6-16.9-16.9c0-9.3,7.6-16.9,16.9-16.9c9.3,0,16.9,7.6,16.9,16.9
				C1208.1,171.1,1200.6,178.7,1191.2,178.7z M1191.2,150.1c-6.5,0-11.7,5.3-11.7,11.7c0,6.5,5.3,11.7,11.7,11.7
				c6.5,0,11.7-5.3,11.7-11.7C1203,155.3,1197.7,150.1,1191.2,150.1z"/>
		</g>
	</g>
	<g>
		<g>
			<rect x="84" y="743.3" fill="#FFFFFF" width="245.9" height="143.7"/>
			<path d="M329.9,889.6H84c-1.4,0-2.6-1.2-2.6-2.6V743.3c0-1.4,1.2-2.6,2.6-2.6h245.9c1.4,0,2.6,1.2,2.6,2.6V887
				C332.5,888.4,331.3,889.6,329.9,889.6z M86.6,884.4h240.7V745.8H86.6V884.4z"/>
		</g>
		<g>
			<circle fill="#FFFFFF" cx="289.8" cy="777.5" r="19.4"/>
			<path d="M289.8,799.5c-12.1,0-22-9.9-22-22c0-12.1,9.9-22,22-22c12.1,0,22,9.9,22,22C311.8,789.6,301.9,799.5,289.8,799.5z
				 M289.8,760.6c-9.3,0-16.8,7.5-16.8,16.8c0,9.3,7.5,16.8,16.8,16.8c9.3,0,16.8-7.5,16.8-16.8C306.6,768.2,299,760.6,289.8,760.6z
				"/>
		</g>
		<g>
			<path d="M262.1,799.5c-12.1,0-22-9.9-22-22c0-12.1,9.9-22,22-22c12.1,0,22,9.9,22,22C284.1,789.6,274.2,799.5,262.1,799.5z
				 M262.1,760.6c-9.3,0-16.8,7.5-16.8,16.8c0,9.3,7.5,16.8,16.8,16.8s16.8-7.5,16.8-16.8C278.9,768.2,271.4,760.6,262.1,760.6z"/>
		</g>
		<g>
			<path d="M134,859.6h-30.2c-1.4,0-2.6-1.2-2.6-2.6c0-1.4,1.2-2.6,2.6-2.6H134c1.4,0,2.6,1.2,2.6,2.6
				C136.6,858.5,135.4,859.6,134,859.6z"/>
		</g>
		<g>
			<path d="M192.7,859.6h-30.2c-1.4,0-2.6-1.2-2.6-2.6c0-1.4,1.2-2.6,2.6-2.6h30.2c1.4,0,2.6,1.2,2.6,2.6
				C195.3,858.5,194.1,859.6,192.7,859.6z"/>
		</g>
		<g>
			<path d="M251.4,859.6h-30.2c-1.4,0-2.6-1.2-2.6-2.6c0-1.4,1.2-2.6,2.6-2.6h30.2c1.4,0,2.6,1.2,2.6,2.6
				C254,858.5,252.8,859.6,251.4,859.6z"/>
		</g>
		<g>
			<path d="M310,859.6h-30.2c-1.4,0-2.6-1.2-2.6-2.6c0-1.4,1.2-2.6,2.6-2.6H310c1.4,0,2.6,1.2,2.6,2.6
				C312.6,858.5,311.5,859.6,310,859.6z"/>
		</g>
	</g>
	<g>
		<g>
			<circle fill="#FFFFFF" cx="134" cy="736.1" r="78.5"/>
			<path d="M134,817.2c-44.7,0-81.1-36.4-81.1-81.1S89.3,655,134,655c44.7,0,81.1,36.4,81.1,81.1S178.7,817.2,134,817.2z M134,660.2
				c-41.9,0-75.9,34.1-75.9,75.9c0,41.9,34.1,75.9,75.9,75.9c41.9,0,75.9-34.1,75.9-75.9C209.9,694.3,175.9,660.2,134,660.2z"/>
		</g>
		<g>
			<g>
				<rect x="97.4" y="713.1" fill="#FFFFFF" width="73.2" height="73.2"/>
				<path d="M170.6,788.9H97.4c-1.4,0-2.6-1.2-2.6-2.6v-73.2c0-1.4,1.2-2.6,2.6-2.6h73.2c1.4,0,2.6,1.2,2.6,2.6v73.2
					C173.2,787.7,172,788.9,170.6,788.9z M100,783.7h68v-68h-68V783.7z"/>
			</g>
			<g>
				<path fill="#FFFFFF" d="M147.4,740.6c0,7.4-6,13.4-13.4,13.4c-7.4,0-13.4-6-13.4-13.4c0-7.4,6-13.4,13.4-13.4
					C141.4,727.3,147.4,733.3,147.4,740.6z"/>
				<path d="M134,756.6c-8.8,0-16-7.2-16-16c0-8.8,7.2-16,16-16c8.8,0,16,7.2,16,16C150,749.4,142.8,756.6,134,756.6z M134,729.8
					c-6,0-10.8,4.8-10.8,10.8s4.8,10.8,10.8,10.8c6,0,10.8-4.8,10.8-10.8S140,729.8,134,729.8z"/>
			</g>
			<g>
				<line fill="#FFFFFF" x1="134" y1="754" x2="134" y2="771.3"/>
				<path d="M134,773.9c-1.4,0-2.6-1.2-2.6-2.6V754c0-1.4,1.2-2.6,2.6-2.6s2.6,1.2,2.6,2.6v17.3C136.6,772.8,135.4,773.9,134,773.9z
					"/>
			</g>
			<g>
				<path d="M156.4,715.7c-1.4,0-2.6-1.2-2.6-2.6v-18.5c0-10.9-8.9-19.8-19.8-19.8c-10.9,0-19.8,8.9-19.8,19.8v18.5
					c0,1.4-1.2,2.6-2.6,2.6s-2.6-1.2-2.6-2.6v-18.5c0-13.8,11.2-25,25-25c13.8,0,25,11.2,25,25v18.5
					C159,714.5,157.9,715.7,156.4,715.7z"/>
			</g>
		</g>
	</g>
	<g>
		<g>
			<path fill="#FFFFFF" d="M270.3,87c0-11.4-9.3-20.7-20.7-20.7h-145C93.3,66.3,84,75.6,84,87v258.8h186.4V87z"/>
			<path d="M270.3,348.4H84c-1.4,0-2.6-1.2-2.6-2.6V87c0-12.8,10.4-23.3,23.3-23.3h145c12.8,0,23.3,10.4,23.3,23.3v258.8
				C272.9,347.3,271.8,348.4,270.3,348.4z M86.6,343.2h181.2V87c0-10-8.1-18.1-18.1-18.1h-145c-10,0-18.1,8.1-18.1,18.1V343.2z"/>
		</g>
		<g>
			<path fill="#FFFFFF" d="M84,345.8v26.8c0,11.4,9.3,20.7,20.7,20.7h145c11.4,0,20.7-9.3,20.7-20.7v-26.8H84z"/>
			<path d="M249.6,396h-145c-12.8,0-23.3-10.4-23.3-23.3v-26.8c0-1.4,1.2-2.6,2.6-2.6h186.4c1.4,0,2.6,1.2,2.6,2.6v26.8
				C272.9,385.5,262.5,396,249.6,396z M86.6,348.4v24.2c0,10,8.1,18.1,18.1,18.1h145c10,0,18.1-8.1,18.1-18.1v-24.2H86.6z"/>
		</g>
	</g>
	<g>
		<line fill="#FFFFFF" x1="106.7" y1="103.2" x2="242.7" y2="103.2"/>
		<path d="M242.7,105.8h-136c-1.4,0-2.6-1.2-2.6-2.6s1.2-2.6,2.6-2.6h136c1.4,0,2.6,1.2,2.6,2.6S244.1,105.8,242.7,105.8z"/>
	</g>
	<g>
		<path fill="#FFFFFF" d="M190.5,369.6c0,7.4-6,13.4-13.4,13.4c-7.4,0-13.4-6-13.4-13.4c0-7.4,6-13.4,13.4-13.4
			C184.6,356.2,190.5,362.2,190.5,369.6z"/>
		<path d="M177.2,385.6c-8.8,0-16-7.2-16-16c0-8.8,7.2-16,16-16c8.8,0,16,7.2,16,16C193.1,378.4,186,385.6,177.2,385.6z
			 M177.2,358.8c-6,0-10.8,4.8-10.8,10.8s4.8,10.8,10.8,10.8c6,0,10.8-4.8,10.8-10.8S183.1,358.8,177.2,358.8z"/>
	</g>
	<g>
		<rect x="107.4" y="151.1" fill="#FFFFFF" width="139.5" height="97.3"/>
		<path d="M246.9,250.9H107.4c-1.4,0-2.6-1.2-2.6-2.6v-97.3c0-1.4,1.2-2.6,2.6-2.6h139.5c1.4,0,2.6,1.2,2.6,2.6v97.3
			C249.5,249.8,248.3,250.9,246.9,250.9z M110,245.8h134.3v-92.1H110V245.8z"/>
	</g>
	<g>
		<g>
			<path d="M130.7,205v16.4h-5.1V178h12c4.7,0,8.3,1.1,10.8,3.4c2.6,2.3,3.8,5.5,3.8,9.6s-1.4,7.5-4.3,10.1
				c-2.8,2.6-6.7,3.9-11.5,3.9H130.7z M130.7,182.6v17.8h5.3c3.5,0,6.2-0.8,8.1-2.4c1.9-1.6,2.8-3.9,2.8-6.8c0-5.7-3.4-8.6-10.2-8.6
				H130.7z"/>
		</g>
		<g>
			<path d="M194.1,221.5h-5.6l-4.6-12.2h-18.4l-4.3,12.2h-5.7L172,178h5.3L194.1,221.5z M182.1,204.7l-6.8-18.5
				c-0.2-0.6-0.4-1.6-0.7-2.9h-0.1c-0.2,1.2-0.4,2.2-0.7,2.9l-6.8,18.5H182.1z"/>
		</g>
		<g>
			<path d="M228.7,178l-14.3,27.4v16.1h-5.1v-16l-14-27.5h5.8l9.7,19.7c0.1,0.2,0.5,1.1,1.1,2.7h0.1c0.2-0.7,0.6-1.6,1.2-2.7
				l10.2-19.7H228.7z"/>
		</g>
	</g>
	<g>
		<path d="M286.7,601.2H159.9c-1.1,0-2.1-0.7-2.4-1.7l-56.8-158.8H68.7c-1.4,0-2.6-1.2-2.6-2.6c0-1.4,1.2-2.6,2.6-2.6h33.7
			c1.1,0,2.1,0.7,2.4,1.7l56.8,158.8h124.9c1.4,0,2.6,1.2,2.6,2.6C289.2,600.1,288.1,601.2,286.7,601.2z"/>
	</g>
	<g>
		<path d="M286.7,571.1H149.1c-1.4,0-2.6-1.2-2.6-2.6c0-1.4,1.2-2.6,2.6-2.6h135.3l16.5-98H112.2c-1.4,0-2.6-1.2-2.6-2.6
			c0-1.4,1.2-2.6,2.6-2.6H304c0.8,0,1.5,0.3,2,0.9c0.5,0.6,0.7,1.4,0.6,2.1l-17.3,103.2C289,570.2,287.9,571.1,286.7,571.1z"/>
	</g>
	<g>
		<circle fill="#FFFFFF" cx="270.3" cy="603.6" r="19.4"/>
		<path d="M270.3,625.6c-12.1,0-22-9.9-22-22c0-12.1,9.9-22,22-22c12.1,0,22,9.9,22,22C292.3,615.7,282.5,625.6,270.3,625.6z
			 M270.3,586.8c-9.3,0-16.8,7.5-16.8,16.8s7.5,16.8,16.8,16.8c9.3,0,16.8-7.5,16.8-16.8S279.6,586.8,270.3,586.8z"/>
	</g>
	<g>
		<circle fill="#FFFFFF" cx="162.5" cy="603.6" r="19.4"/>
		<path d="M162.5,625.6c-12.1,0-22-9.9-22-22c0-12.1,9.9-22,22-22s22,9.9,22,22C184.5,615.7,174.6,625.6,162.5,625.6z M162.5,586.8
			c-9.3,0-16.8,7.5-16.8,16.8s7.5,16.8,16.8,16.8s16.8-7.5,16.8-16.8S171.8,586.8,162.5,586.8z"/>
	</g>
	<g>
		<path d="M320.4,500.3H163.8c-1.4,0-2.6-1.2-2.6-2.6s1.2-2.6,2.6-2.6h156.6c1.4,0,2.6,1.2,2.6,2.6S321.8,500.3,320.4,500.3z"/>
	</g>
	<g>
		<path d="M315.2,535.4H170.6c-1.4,0-2.6-1.2-2.6-2.6c0-1.4,1.2-2.6,2.6-2.6h144.6c1.4,0,2.6,1.2,2.6,2.6
			C317.8,534.3,316.6,535.4,315.2,535.4z"/>
	</g>
	<g>
		<path d="M225.9,571.1c-1.4,0-2.6-1.2-2.6-2.6v-89.8c0-1.4,1.2-2.6,2.6-2.6c1.4,0,2.6,1.2,2.6,2.6v89.8
			C228.5,569.9,227.3,571.1,225.9,571.1z"/>
	</g>
	<g>
		<g>
			<path d="M411.4,466.6H370c-1.4,0-2.6-1.2-2.6-2.6s1.2-2.6,2.6-2.6h41.4c1.4,0,2.6,1.2,2.6,2.6S412.8,466.6,411.4,466.6z"/>
		</g>
		<g>
			<path d="M390.7,487.3c-1.4,0-2.6-1.2-2.6-2.6v-41.4c0-1.4,1.2-2.6,2.6-2.6s2.6,1.2,2.6,2.6v41.4
				C393.3,486.2,392.1,487.3,390.7,487.3z"/>
		</g>
	</g>
	<g>
		<path d="M390.7,508.9c-24.7,0-44.8-20.1-44.8-44.8s20.1-44.8,44.8-44.8c24.7,0,44.8,20.1,44.8,44.8S415.4,508.9,390.7,508.9z
			 M390.7,424.4c-21.9,0-39.6,17.8-39.6,39.6c0,21.9,17.8,39.6,39.6,39.6c21.8,0,39.6-17.8,39.6-39.6
			C430.3,442.2,412.6,424.4,390.7,424.4z"/>
	</g>
</g>
</svg>
